<svg xmlns="http://www.w3.org/2000/svg" viewBox="0 0 1000 560"><rect width="1000" height="560" fill="#efeee8"/><g font-family="sans-serif" fill="#252e35"><text x="40" y="40" font-size="25">Authoritative envelopes: equal units on every axis</text><text x="40" y="70" font-size="15">Front elevation · 100 pixels per block · feet aligned · dashed boxes are collision</text><rect x="120.0" y="210.0" width="60.0" height="180.0" fill="none" stroke="#51747e" stroke-dasharray="5 4"/><rect x="135" y="210" width="30" height="30"/><rect x="130" y="242" width="40" height="80"/><rect x="120" y="245" width="8" height="70"/><rect x="172" y="245" width="8" height="70"/><rect x="130" y="320" width="17" height="70"/><rect x="153" y="320" width="17" height="70"/><text x="150" y="425" text-anchor="middle" font-size="19">Player</text><text x="150" y="452" text-anchor="middle" font-size="16">0.6 × 0.6 × 1.8 blocks</text><rect x="355.0" y="210.0" width="160.0" height="180.0" fill="none" stroke="#51747e" stroke-dasharray="5 4"/><path d="M355 390 v-90 l15 -30 10 -40 15 12 20 -32 20 20 20 -20 20 32 15 -12 10 40 15 30 v90 h-30 v-52 l-25 -15 h-50 l-25 15 v52z"/><path fill="#efeee8" d="M409 296 h52 l-8 35 h-36z"/><text x="435" y="425" text-anchor="middle" font-size="19">Vargr guardian</text><text x="435" y="452" text-anchor="middle" font-size="16">1.6 × 1.6 × 1.8 blocks</text><rect x="720" y="110.0" width="100" height="280.0" fill="none" stroke="#51747e" stroke-dasharray="5 4"/><path d="M722 390 l8 -170 12 -15 v-55 l5 -40 10 15 13 -15 13 15 10 -15 5 40 v55 l12 15 10 170 h-20 l-22 -84 -22 84z"/><path fill="#81b7c1" d="M767 225 h6 v45 h-6z"/><text x="770" y="425" text-anchor="middle" font-size="19">Draugr king</text><text x="770" y="452" text-anchor="middle" font-size="16">1 × 1 × 2.8 blocks</text><path d="M40 390H950" stroke="#252e35"/><text x="40" y="505" font-size="16">Envelope proxies only. Equipment and animated sweeps require separate extent checks.</text></g></svg>